<svg width="93" height="70" viewBox="0 0 93 70" fill="none" xmlns="http://www.w3.org/2000/svg">
<g clip-path="url(#clip0)">
<rect width="93" height="70" fill="#4C2C59"/>
<path d="M44.1015 43.4996C45.5202 43.4996 46.5655 43.7716 47.2375 44.3156C47.9202 44.849 48.2615 45.6596 48.2615 46.7476C48.2615 47.3556 48.1495 47.8623 47.9255 48.2676C47.7015 48.673 47.4135 48.9983 47.0615 49.2436C46.7202 49.4783 46.3575 49.665 45.9735 49.8036L49.1095 54.9236H47.4295L44.6615 50.2036H42.3895V54.9236H40.9495V43.4996H44.1015ZM44.0215 44.7476H42.3895V48.9876H44.1015C45.0295 48.9876 45.7069 48.8063 46.1335 48.4436C46.5602 48.0703 46.7735 47.5263 46.7735 46.8116C46.7735 46.065 46.5495 45.537 46.1015 45.2276C45.6535 44.9076 44.9602 44.7476 44.0215 44.7476ZM44.0695 72.1876C44.8055 72.1876 45.4349 72.3476 45.9575 72.6676C46.4909 72.9876 46.8962 73.441 47.1735 74.0276C47.4615 74.6036 47.6055 75.281 47.6055 76.0596V76.9076H41.7335C41.7549 77.8783 42.0002 78.6196 42.4695 79.1316C42.9495 79.633 43.6162 79.8836 44.4695 79.8836C45.0135 79.8836 45.4935 79.8356 45.9095 79.7396C46.3362 79.633 46.7735 79.4836 47.2215 79.2916V80.5236C46.7842 80.7156 46.3522 80.8543 45.9255 80.9396C45.4989 81.0356 44.9922 81.0836 44.4055 81.0836C43.5949 81.0836 42.8749 80.9183 42.2455 80.5876C41.6269 80.257 41.1415 79.7663 40.7895 79.1156C40.4482 78.4543 40.2775 77.649 40.2775 76.6996C40.2775 75.761 40.4322 74.9556 40.7415 74.2836C41.0615 73.6116 41.5042 73.0943 42.0695 72.7316C42.6455 72.369 43.3122 72.1876 44.0695 72.1876ZM44.0535 73.3396C43.3815 73.3396 42.8482 73.5583 42.4535 73.9956C42.0695 74.4223 41.8402 75.0196 41.7655 75.7876H46.1335C46.1229 75.0623 45.9522 74.4756 45.6215 74.0276C45.2909 73.569 44.7682 73.3396 44.0535 73.3396ZM52.9568 72.2036C54.0021 72.2036 54.7754 72.433 55.2768 72.8916C55.7781 73.3503 56.0288 74.081 56.0288 75.0836V80.9236H55.0048L54.7328 79.7076H54.6688C54.2954 80.177 53.9008 80.5236 53.4848 80.7476C53.0794 80.9716 52.5141 81.0836 51.7888 81.0836C51.0101 81.0836 50.3648 80.881 49.8528 80.4756C49.3408 80.0596 49.0848 79.4143 49.0848 78.5396C49.0848 77.6863 49.4208 77.0303 50.0928 76.5716C50.7648 76.1023 51.7994 75.8463 53.1968 75.8036L54.6528 75.7556V75.2436C54.6528 74.529 54.4981 74.033 54.1888 73.7556C53.8794 73.4783 53.4421 73.3396 52.8768 73.3396C52.4288 73.3396 52.0021 73.409 51.5968 73.5476C51.1914 73.6756 50.8128 73.825 50.4608 73.9956L50.0288 72.9396C50.4021 72.737 50.8448 72.5663 51.3568 72.4276C51.8688 72.2783 52.4021 72.2036 52.9568 72.2036ZM53.3728 76.7796C52.3061 76.8223 51.5648 76.993 51.1488 77.2916C50.7434 77.5903 50.5408 78.0116 50.5408 78.5556C50.5408 79.0356 50.6848 79.3876 50.9728 79.6116C51.2714 79.8356 51.6501 79.9476 52.1088 79.9476C52.8341 79.9476 53.4368 79.7503 53.9168 79.3556C54.3968 78.9503 54.6368 78.3316 54.6368 77.4996V76.7316L53.3728 76.7796ZM42.1655 106.924H40.7575V94.7636H42.1655V106.924ZM45.8455 122.604C44.6189 122.604 43.6535 123.014 42.9495 123.836C42.2455 124.657 41.8935 125.782 41.8935 127.212C41.8935 128.63 42.2189 129.756 42.8695 130.588C43.5309 131.409 44.5175 131.82 45.8295 131.82C46.3309 131.82 46.8055 131.777 47.2535 131.692C47.7015 131.606 48.1389 131.5 48.5655 131.372V132.62C48.1389 132.78 47.6962 132.897 47.2375 132.972C46.7895 133.046 46.2509 133.084 45.6215 133.084C44.4589 133.084 43.4882 132.844 42.7095 132.364C41.9309 131.884 41.3442 131.201 40.9495 130.316C40.5655 129.43 40.3735 128.39 40.3735 127.196C40.3735 126.044 40.5815 125.03 40.9975 124.156C41.4242 123.27 42.0482 122.582 42.8695 122.092C43.6909 121.59 44.6882 121.34 45.8615 121.34C47.0669 121.34 48.1175 121.564 49.0135 122.012L48.4375 123.228C48.0855 123.068 47.6909 122.924 47.2535 122.796C46.8269 122.668 46.3575 122.604 45.8455 122.604ZM42.1655 150.332C42.1655 150.758 42.1389 151.158 42.0855 151.532H42.1815C42.4589 151.094 42.8322 150.764 43.3015 150.54C43.7815 150.316 44.2989 150.204 44.8535 150.204C45.8989 150.204 46.6829 150.454 47.2055 150.956C47.7282 151.446 47.9895 152.241 47.9895 153.34V158.924H46.5975V153.436C46.5975 152.06 45.9575 151.372 44.6775 151.372C43.7175 151.372 43.0562 151.644 42.6935 152.188C42.3415 152.721 42.1655 153.489 42.1655 154.492V158.924H40.7575V146.764H42.1655V150.332ZM44.0055 176.204C45.0509 176.204 45.8242 176.433 46.3255 176.892C46.8269 177.35 47.0775 178.081 47.0775 179.084V184.924H46.0535L45.7815 183.708H45.7175C45.3442 184.177 44.9495 184.524 44.5335 184.748C44.1282 184.972 43.5629 185.084 42.8375 185.084C42.0589 185.084 41.4135 184.881 40.9015 184.476C40.3895 184.06 40.1335 183.414 40.1335 182.54C40.1335 181.686 40.4695 181.03 41.1415 180.572C41.8135 180.102 42.8482 179.846 44.2455 179.804L45.7015 179.756V179.244C45.7015 178.529 45.5469 178.033 45.2375 177.756C44.9282 177.478 44.4909 177.34 43.9255 177.34C43.4775 177.34 43.0509 177.409 42.6455 177.548C42.2402 177.676 41.8615 177.825 41.5095 177.996L41.0775 176.94C41.4509 176.737 41.8935 176.566 42.4055 176.428C42.9175 176.278 43.4509 176.204 44.0055 176.204ZM44.4215 180.78C43.3549 180.822 42.6135 180.993 42.1975 181.292C41.7922 181.59 41.5895 182.012 41.5895 182.556C41.5895 183.036 41.7335 183.388 42.0215 183.612C42.3202 183.836 42.6989 183.948 43.1575 183.948C43.8829 183.948 44.4855 183.75 44.9655 183.356C45.4455 182.95 45.6855 182.332 45.6855 181.5V180.732L44.4215 180.78ZM52.5103 183.932C52.7236 183.932 52.9423 183.916 53.1663 183.884C53.3903 183.841 53.5716 183.798 53.7103 183.756V184.828C53.5609 184.902 53.3476 184.961 53.0703 185.004C52.7929 185.057 52.5263 185.084 52.2703 185.084C51.8223 185.084 51.4063 185.009 51.0223 184.86C50.6489 184.7 50.3449 184.428 50.1103 184.044C49.8756 183.66 49.7583 183.121 49.7583 182.428V177.436H48.5423V176.764L49.7743 176.204L50.3343 174.38H51.1663V176.348H53.6463V177.436H51.1663V182.396C51.1663 182.918 51.2889 183.308 51.5343 183.564C51.7903 183.809 52.1156 183.932 52.5103 183.932Z" fill="#4C2C59"/>
<path d="M35.6421 41.6567C35.6421 41.6567 35.3817 33.4186 35.9314 31.4314C36.539 29.1912 39.085 24.2772 44.0325 26.9148" stroke="#4C2C59" stroke-width="15" stroke-miterlimit="10"/>
<path d="M39.9428 33.2444C40.0865 33.2667 44.915 33.6231 46.7544 32.9103C48.5939 32.1975 48.4511 30.4968 43.7088 26.7101" stroke="#4C2C59" stroke-width="15" stroke-miterlimit="10"/>
<path d="M27.2595 57.7982C28.6782 57.7982 29.7235 58.0702 30.3955 58.6142C31.0782 59.1476 31.4195 59.9582 31.4195 61.0462C31.4195 61.6542 31.3075 62.1609 31.0835 62.5662C30.8595 62.9716 30.5715 63.2969 30.2195 63.5422C29.8782 63.7769 29.5155 63.9636 29.1315 64.1022L32.2675 69.2222H30.5875L27.8195 64.5022H25.5475V69.2222H24.1075V57.7982H27.2595ZM27.1795 59.0462H25.5475V63.2862H27.2595C28.1875 63.2862 28.8649 63.1049 29.2915 62.7422C29.7182 62.3689 29.9315 61.8249 29.9315 61.1102C29.9315 60.3636 29.7075 59.8356 29.2595 59.5262C28.8115 59.2062 28.1182 59.0462 27.1795 59.0462ZM37.1007 60.4862C37.8367 60.4862 38.466 60.6462 38.9887 60.9662C39.522 61.2862 39.9273 61.7396 40.2047 62.3262C40.4927 62.9022 40.6367 63.5796 40.6367 64.3582V65.2062H34.7647C34.786 66.1769 35.0313 66.9182 35.5007 67.4302C35.9807 67.9316 36.6473 68.1822 37.5007 68.1822C38.0447 68.1822 38.5247 68.1342 38.9407 68.0382C39.3673 67.9316 39.8047 67.7822 40.2527 67.5902V68.8222C39.8153 69.0142 39.3833 69.1529 38.9567 69.2382C38.53 69.3342 38.0233 69.3822 37.4367 69.3822C36.626 69.3822 35.906 69.2169 35.2767 68.8862C34.658 68.5556 34.1727 68.0649 33.8207 67.4142C33.4793 66.7529 33.3087 65.9476 33.3087 64.9982C33.3087 64.0596 33.4633 63.2542 33.7727 62.5822C34.0927 61.9102 34.5353 61.3929 35.1007 61.0302C35.6767 60.6676 36.3433 60.4862 37.1007 60.4862ZM37.0847 61.6382C36.4127 61.6382 35.8793 61.8569 35.4847 62.2942C35.1007 62.7209 34.8713 63.3182 34.7967 64.0862H39.1647C39.154 63.3609 38.9833 62.7742 38.6527 62.3262C38.322 61.8676 37.7993 61.6382 37.0847 61.6382ZM45.9879 60.5022C47.0333 60.5022 47.8066 60.7316 48.3079 61.1902C48.8093 61.6489 49.0599 62.3796 49.0599 63.3822V69.2222H48.0359L47.7639 68.0062H47.6999C47.3266 68.4756 46.9319 68.8222 46.5159 69.0462C46.1106 69.2702 45.5453 69.3822 44.8199 69.3822C44.0413 69.3822 43.3959 69.1796 42.8839 68.7742C42.3719 68.3582 42.1159 67.7129 42.1159 66.8382C42.1159 65.9849 42.4519 65.3289 43.1239 64.8702C43.7959 64.4009 44.8306 64.1449 46.2279 64.1022L47.6839 64.0542V63.5422C47.6839 62.8276 47.5293 62.3316 47.2199 62.0542C46.9106 61.7769 46.4733 61.6382 45.9079 61.6382C45.4599 61.6382 45.0333 61.7076 44.6279 61.8462C44.2226 61.9742 43.8439 62.1236 43.4919 62.2942L43.0599 61.2382C43.4333 61.0356 43.8759 60.8649 44.3879 60.7262C44.8999 60.5769 45.4333 60.5022 45.9879 60.5022ZM46.4039 65.0782C45.3373 65.1209 44.5959 65.2916 44.1799 65.5902C43.7746 65.8889 43.5719 66.3102 43.5719 66.8542C43.5719 67.3342 43.7159 67.6862 44.0039 67.9102C44.3026 68.1342 44.6813 68.2462 45.1399 68.2462C45.8653 68.2462 46.4679 68.0489 46.9479 67.6542C47.4279 67.2489 47.6679 66.6302 47.6679 65.7982V65.0302L46.4039 65.0782ZM53.0367 69.2222H51.6287V57.0622H53.0367V69.2222ZM64.8379 58.9022C63.6112 58.9022 62.6459 59.3129 61.9419 60.1342C61.2379 60.9556 60.8859 62.0809 60.8859 63.5102C60.8859 64.9289 61.2112 66.0542 61.8619 66.8862C62.5232 67.7076 63.5099 68.1182 64.8219 68.1182C65.3232 68.1182 65.7979 68.0756 66.2459 67.9902C66.6939 67.9049 67.1312 67.7982 67.5579 67.6702V68.9182C67.1312 69.0782 66.6886 69.1956 66.2299 69.2702C65.7819 69.3449 65.2432 69.3822 64.6139 69.3822C63.4512 69.3822 62.4806 69.1422 61.7019 68.6622C60.9232 68.1822 60.3366 67.4996 59.9419 66.6142C59.5579 65.7289 59.3659 64.6889 59.3659 63.4942C59.3659 62.3422 59.5739 61.3289 59.9899 60.4542C60.4166 59.5689 61.0406 58.8809 61.8619 58.3902C62.6832 57.8889 63.6806 57.6382 64.8539 57.6382C66.0592 57.6382 67.1099 57.8622 68.0059 58.3102L67.4299 59.5262C67.0779 59.3662 66.6832 59.2222 66.2459 59.0942C65.8192 58.9662 65.3499 58.9022 64.8379 58.9022ZM71.1873 60.6302C71.1873 61.0569 71.1606 61.4569 71.1073 61.8302H71.2033C71.4806 61.3929 71.854 61.0622 72.3233 60.8382C72.8033 60.6142 73.3206 60.5022 73.8753 60.5022C74.9206 60.5022 75.7046 60.7529 76.2273 61.2542C76.75 61.7449 77.0113 62.5396 77.0113 63.6382V69.2222H75.6193V63.7342C75.6193 62.3582 74.9793 61.6702 73.6993 61.6702C72.7393 61.6702 72.078 61.9422 71.7153 62.4862C71.3633 63.0196 71.1873 63.7876 71.1873 64.7902V69.2222H69.7793V57.0622H71.1873V60.6302ZM82.8379 60.5022C83.8832 60.5022 84.6566 60.7316 85.1579 61.1902C85.6592 61.6489 85.9099 62.3796 85.9099 63.3822V69.2222H84.8859L84.6139 68.0062H84.5499C84.1766 68.4756 83.7819 68.8222 83.3659 69.0462C82.9606 69.2702 82.3952 69.3822 81.6699 69.3822C80.8912 69.3822 80.2459 69.1796 79.7339 68.7742C79.2219 68.3582 78.9659 67.7129 78.9659 66.8382C78.9659 65.9849 79.3019 65.3289 79.9739 64.8702C80.6459 64.4009 81.6806 64.1449 83.0779 64.1022L84.5339 64.0542V63.5422C84.5339 62.8276 84.3792 62.3316 84.0699 62.0542C83.7606 61.7769 83.3232 61.6382 82.7579 61.6382C82.3099 61.6382 81.8832 61.7076 81.4779 61.8462C81.0726 61.9742 80.6939 62.1236 80.3419 62.2942L79.9099 61.2382C80.2832 61.0356 80.7259 60.8649 81.2379 60.7262C81.7499 60.5769 82.2832 60.5022 82.8379 60.5022ZM83.2539 65.0782C82.1872 65.1209 81.4459 65.2916 81.0299 65.5902C80.6246 65.8889 80.4219 66.3102 80.4219 66.8542C80.4219 67.3342 80.5659 67.6862 80.8539 67.9102C81.1526 68.1342 81.5312 68.2462 81.9899 68.2462C82.7152 68.2462 83.3179 68.0489 83.7979 67.6542C84.2779 67.2489 84.5179 66.6302 84.5179 65.7982V65.0302L83.2539 65.0782ZM91.3427 68.2302C91.556 68.2302 91.7747 68.2142 91.9987 68.1822C92.2227 68.1396 92.404 68.0969 92.5427 68.0542V69.1262C92.3933 69.2009 92.18 69.2596 91.9027 69.3022C91.6253 69.3556 91.3587 69.3822 91.1027 69.3822C90.6547 69.3822 90.2387 69.3076 89.8547 69.1582C89.4813 68.9982 89.1773 68.7262 88.9427 68.3422C88.708 67.9582 88.5907 67.4196 88.5907 66.7262V61.7342H87.3747V61.0622L88.6067 60.5022L89.1667 58.6782H89.9987V60.6462H92.4787V61.7342H89.9987V66.6942C89.9987 67.2169 90.1213 67.6062 90.3667 67.8622C90.6227 68.1076 90.948 68.2302 91.3427 68.2302Z" fill="white"/>
<path d="M7.25115 70.2222C7.25115 70.2222 6.18998 37.152 8.43023 29.1746C10.9063 20.1818 21.2822 0.455727 41.4444 11.044" stroke="white" stroke-width="15" stroke-miterlimit="10"/>
<path d="M24.7778 36.4527C25.3634 36.5422 45.0408 37.9728 52.537 35.1115C60.0332 32.2502 59.4511 25.4229 40.1251 10.2222" stroke="white" stroke-width="15" stroke-miterlimit="10"/>
</g>
<defs>
<clipPath id="clip0">
<rect width="93" height="70" fill="white"/>
</clipPath>
</defs>
</svg>
