<svg width="21" height="23" viewBox="0 0 21 23" fill="none" xmlns="http://www.w3.org/2000/svg">
<g clip-path="url(#clip0)">
<rect width="21" height="23" fill="white"/>
<path d="M16.8824 19.3594V2.46094C16.8824 1.10398 15.7784 0 14.4214 0H4.57769C3.22073 0 2.11675 1.10398 2.11675 2.46094V19.3594H0.477112V21H18.523V19.3594H16.8824ZM15.2418 19.3594H3.75738V2.46094C3.75738 2.00862 4.12537 1.64062 4.57769 1.64062H14.4214C14.8738 1.64062 15.2418 2.00862 15.2418 2.46094V19.3594ZM12.7808 9.76172C12.3278 9.76172 11.9605 10.129 11.9605 10.582C11.9605 11.0351 12.3278 11.4023 12.7808 11.4023C13.2339 11.4023 13.6011 11.0351 13.6011 10.582C13.6011 10.129 13.2338 9.76172 12.7808 9.76172Z" fill="#25CCBF"/>
</g>
<defs>
<clipPath id="clip0">
<rect width="21" height="23" fill="white"/>
</clipPath>
</defs>
</svg>
