<svg width="21" height="23" viewBox="0 0 21 23" fill="none" xmlns="http://www.w3.org/2000/svg">
<g clip-path="url(#clip0)">
<rect width="21" height="23" fill="white"/>
<path d="M17.0863 23C16.5838 23 16.1726 22.5957 16.1726 22.1016C16.1726 18.5842 13.2624 15.7227 9.68528 15.7227H8.31472C4.73756 15.7227 1.82741 18.5842 1.82741 22.1016C1.82741 22.5957 1.41624 23 0.913706 23C0.411168 23 0 22.5957 0 22.1016C0 17.5914 3.72792 13.9258 8.31472 13.9258H9.68528C14.2721 13.9258 18 17.5914 18 22.1016C18 22.5957 17.5888 23 17.0863 23Z" fill="#25CCBF"/>
<path d="M9.16751 12.1289C5.76853 12.1289 3 9.40664 3 6.06445C3 2.72227 5.76853 0 9.16751 0C12.5665 0 15.335 2.72227 15.335 6.06445C15.335 9.40664 12.5665 12.1289 9.16751 12.1289ZM9.16751 1.79688C6.7736 1.79688 4.82741 3.71055 4.82741 6.06445C4.82741 8.41836 6.7736 10.332 9.16751 10.332C11.5614 10.332 13.5076 8.41836 13.5076 6.06445C13.5076 3.71055 11.5614 1.79688 9.16751 1.79688Z" fill="#25CCBF"/>
</g>
<defs>
<clipPath id="clip0">
<rect width="21" height="23" fill="white"/>
</clipPath>
</defs>
</svg>
